<svg xmlns="http://www.w3.org/2000/svg" xmlns:xlink="http://www.w3.org/1999/xlink" width="40" zoomAndPan="magnify" viewBox="0 0 30 30.000001" height="40" preserveAspectRatio="xMidYMid meet" version="1.0"><defs><clipPath id="d32ef02b97"><path d="M 2.640625 9 L 15 9 L 15 22.898438 L 2.640625 22.898438 Z M 2.640625 9 " clip-rule="nonzero"/></clipPath><clipPath id="27ce456161"><path d="M 5 6.207031 L 12 6.207031 L 12 10 L 5 10 Z M 5 6.207031 " clip-rule="nonzero"/></clipPath><clipPath id="6d0c1f7682"><path d="M 15 9 L 27.320312 9 L 27.320312 22.898438 L 15 22.898438 Z M 15 9 " clip-rule="nonzero"/></clipPath><clipPath id="c496be50f8"><path d="M 18 6.207031 L 25 6.207031 L 25 10 L 18 10 Z M 18 6.207031 " clip-rule="nonzero"/></clipPath><clipPath id="b69f3f42a3"><path d="M 19.050781 16.117188 L 27.03125 16.117188 L 27.03125 21.917969 L 19.050781 21.917969 Z M 19.050781 16.117188 " clip-rule="nonzero"/></clipPath><clipPath id="ff7bd58ecd"><path d="M 19.867188 20.382812 L 21.097656 20.382812 L 21.097656 21.917969 L 19.867188 21.917969 Z M 19.867188 20.382812 " clip-rule="nonzero"/></clipPath><clipPath id="2bf247e151"><path d="M 21.695312 19.316406 L 22.921875 19.316406 L 22.921875 21.917969 L 21.695312 21.917969 Z M 21.695312 19.316406 " clip-rule="nonzero"/></clipPath><clipPath id="c46d6c9c16"><path d="M 23.519531 19.128906 L 24.75 19.128906 L 24.75 21.917969 L 23.519531 21.917969 Z M 23.519531 19.128906 " clip-rule="nonzero"/></clipPath><clipPath id="7ffe29338c"><path d="M 25.324219 17.53125 L 26.574219 17.53125 L 26.574219 21.917969 L 25.324219 21.917969 Z M 25.324219 17.53125 " clip-rule="nonzero"/></clipPath></defs><g clip-path="url(#d32ef02b97)"><path fill="#0f1c37" d="M 9.429688 14.40625 C 9.683594 14.335938 9.945312 14.484375 10.015625 14.738281 C 10.585938 16.789062 12.367188 18.269531 14.457031 18.488281 L 14.457031 11.402344 C 14.457031 10.597656 13.804688 9.945312 13 9.945312 L 4.097656 9.945312 C 3.292969 9.945312 2.640625 10.597656 2.640625 11.402344 L 2.640625 21.355469 C 2.640625 22.160156 3.292969 22.8125 4.097656 22.8125 L 13 22.8125 C 13.804688 22.8125 14.457031 22.160156 14.457031 21.355469 L 14.457031 19.449219 C 11.941406 19.226562 9.78125 17.453125 9.097656 14.992188 C 9.027344 14.738281 9.175781 14.476562 9.429688 14.40625 Z M 12.253906 13.820312 C 12.609375 13.820312 12.902344 14.113281 12.902344 14.476562 C 12.902344 14.839844 12.609375 15.132812 12.253906 15.132812 C 11.894531 15.132812 11.601562 14.839844 11.601562 14.476562 C 11.601562 14.113281 11.894531 13.820312 12.253906 13.820312 Z M 12.253906 13.820312 " fill-opacity="1" fill-rule="nonzero"/></g><g clip-path="url(#27ce456161)"><path fill="#0f1c37" d="M 11.453125 9.945312 L 10.5 9.945312 L 10.5 9.117188 C 10.5 8.042969 9.625 7.167969 8.546875 7.167969 C 7.472656 7.167969 6.597656 8.042969 6.597656 9.117188 L 6.597656 9.945312 L 5.644531 9.945312 L 5.644531 9.117188 C 5.644531 7.515625 6.945312 6.210938 8.546875 6.210938 C 10.148438 6.210938 11.453125 7.515625 11.453125 9.117188 Z M 11.453125 9.945312 " fill-opacity="1" fill-rule="nonzero"/></g><g clip-path="url(#6d0c1f7682)"><path fill="#0f1c37" d="M 25.890625 9.945312 L 16.988281 9.945312 C 16.183594 9.945312 15.53125 10.597656 15.53125 11.402344 L 15.53125 18.488281 C 17.617188 18.269531 19.398438 16.789062 19.972656 14.738281 C 20.039062 14.484375 20.304688 14.335938 20.558594 14.40625 C 20.8125 14.476562 20.960938 14.738281 20.890625 14.992188 C 20.207031 17.453125 18.046875 19.226562 15.53125 19.449219 L 15.53125 21.355469 C 15.53125 22.160156 16.183594 22.8125 16.988281 22.8125 L 25.890625 22.8125 C 26.695312 22.8125 27.347656 22.160156 27.347656 21.355469 L 27.347656 11.402344 C 27.347656 10.597656 26.695312 9.945312 25.890625 9.945312 Z M 17.734375 15.132812 C 17.375 15.132812 17.085938 14.839844 17.085938 14.476562 C 17.085938 14.113281 17.375 13.820312 17.734375 13.820312 C 18.09375 13.820312 18.382812 14.113281 18.382812 14.476562 C 18.382812 14.839844 18.09375 15.132812 17.734375 15.132812 Z M 17.734375 15.132812 " fill-opacity="1" fill-rule="nonzero"/></g><g clip-path="url(#c496be50f8)"><path fill="#0f1c37" d="M 24.34375 9.945312 L 23.390625 9.945312 L 23.390625 9.117188 C 23.390625 8.042969 22.515625 7.167969 21.441406 7.167969 C 20.363281 7.167969 19.488281 8.042969 19.488281 9.117188 L 19.488281 9.945312 L 18.535156 9.945312 L 18.535156 9.117188 C 18.535156 7.515625 19.839844 6.210938 21.441406 6.210938 C 23.042969 6.210938 24.347656 7.515625 24.347656 9.117188 L 24.347656 9.945312 Z M 24.34375 9.945312 " fill-opacity="1" fill-rule="nonzero"/></g><g clip-path="url(#b69f3f42a3)"><path fill="#ffffff" d="M 27.351562 16.117188 L 25.839844 16.40625 L 26.390625 16.648438 L 23.953125 19.003906 L 22.199219 18.691406 L 22.140625 18.683594 L 22.105469 18.71875 L 19.050781 21.921875 L 22.210938 18.90625 L 23.972656 19.300781 L 24.039062 19.316406 L 24.097656 19.265625 L 26.6875 16.992188 L 26.847656 17.570312 L 27.351562 16.117188 " fill-opacity="1" fill-rule="nonzero"/></g><g clip-path="url(#ff7bd58ecd)"><path fill="#ffffff" d="M 19.875 21.558594 L 19.875 22.175781 L 21.089844 22.175781 L 21.089844 20.402344 L 19.875 21.558594 " fill-opacity="1" fill-rule="nonzero"/></g><g clip-path="url(#2bf247e151)"><path fill="#ffffff" d="M 22.210938 19.332031 L 21.699219 19.820312 L 21.699219 22.175781 L 22.914062 22.175781 L 22.914062 19.492188 L 22.210938 19.332031 " fill-opacity="1" fill-rule="nonzero"/></g><g clip-path="url(#c46d6c9c16)"><path fill="#ffffff" d="M 24.097656 19.695312 L 24.039062 19.746094 L 23.972656 19.730469 L 23.519531 19.628906 L 23.519531 22.175781 L 24.734375 22.175781 L 24.734375 19.132812 L 24.097656 19.695312 " fill-opacity="1" fill-rule="nonzero"/></g><g clip-path="url(#7ffe29338c)"><path fill="#ffffff" d="M 25.339844 18.601562 L 25.339844 22.175781 L 26.554688 22.175781 L 26.554688 17.53125 L 25.339844 18.601562 " fill-opacity="1" fill-rule="nonzero"/></g></svg>